<svg id="Layer_1" data-name="Layer 1" xmlns="http://www.w3.org/2000/svg" viewBox="0 0 134.39 122.9"><defs><style>.cls-1{fill:none;stroke:#e30613;stroke-width:3px;}.cls-1,.cls-2,.cls-4{stroke-miterlimit:10;}.cls-2{fill:#d31319;stroke:#cfcdcc;stroke-width:0.5px;}.cls-3{fill:#1d1d1b;}.cls-4{fill:#9c9b9b;stroke:#727272;stroke-width:0.2px;}</style></defs><circle class="cls-1" cx="24.39" cy="24.59" r="22.88"/><circle class="cls-1" cx="110.01" cy="24.38" r="22.88"/><path class="cls-2" d="M21.36,37.51,18.6,33.62,36.06,21.26l2.76,3.89-6.27,4.43,12,17-5,3.57-12-17Z" transform="translate(-8.66 -11.17)"/><path class="cls-2" d="M112.75,24.44l2.5-4.06L133.46,31.6l-2.5,4-6.54-4L113.5,49.37l-5.25-3.24,10.92-17.74Z" transform="translate(-8.66 -11.17)"/><path class="cls-2" d="M88.38,42.2a5.89,5.89,0,0,1-2-.3,5.7,5.7,0,0,1-1.57-.85,9.24,9.24,0,0,1-1.39-1.35q-.67-.78-1.41-1.8a13.59,13.59,0,0,1-4.07,3,13.94,13.94,0,0,1-2.73,1A13.63,13.63,0,0,1,72,42.2a13.38,13.38,0,0,1-3.85-.52,8.52,8.52,0,0,1-3-1.54,6.85,6.85,0,0,1-1.94-2.51,8,8,0,0,1-.69-3.42,7.81,7.81,0,0,1,1.69-5.06A12.24,12.24,0,0,1,69,25.72a11.55,11.55,0,0,1-1.17-1,7.07,7.07,0,0,1-1-1.3,7.33,7.33,0,0,1-.74-1.6,6.25,6.25,0,0,1-.28-1.93,6.31,6.31,0,0,1,.55-2.71,5.77,5.77,0,0,1,1.53-2A6.77,6.77,0,0,1,70.18,14a9.81,9.81,0,0,1,2.87-.41,9,9,0,0,1,2.77.41A6.59,6.59,0,0,1,78,15.15a5.45,5.45,0,0,1,1.91,4.28,5.68,5.68,0,0,1-1.33,3.86,10.37,10.37,0,0,1-4,2.62A11.67,11.67,0,0,1,77,27.19a14.18,14.18,0,0,1,2,1.68,19.34,19.34,0,0,1,1.72,2c.53.71,1.06,1.45,1.58,2.21a16.56,16.56,0,0,0,2.38-4.82,18.92,18.92,0,0,0,.8-5.51,10.25,10.25,0,0,0-.09-1.39,11.13,11.13,0,0,0-.25-1.28h3.1a6.06,6.06,0,0,1,.19,1.21c0,.38,0,.83.07,1.36a17.89,17.89,0,0,1-.37,3.54,23.21,23.21,0,0,1-1,3.45,23.69,23.69,0,0,1-1.45,3.19A26.09,26.09,0,0,1,84,35.58c.45.62.87,1.16,1.24,1.62a8.28,8.28,0,0,0,1.14,1.15,4.27,4.27,0,0,0,1.19.69,4.05,4.05,0,0,0,1.39.22,4.48,4.48,0,0,0,1.19-.16c.41-.1.82-.23,1.25-.38v2.94a8,8,0,0,1-1.47.4A8.75,8.75,0,0,1,88.38,42.2ZM72,39.45a10.65,10.65,0,0,0,2.73-.32,10.82,10.82,0,0,0,2.3-.85A10.11,10.11,0,0,0,79,37a14.68,14.68,0,0,0,1.56-1.48c-.79-1.22-1.53-2.27-2.19-3.14a18.2,18.2,0,0,0-2-2.25,12,12,0,0,0-2.18-1.63,18.68,18.68,0,0,0-2.68-1.26,17.55,17.55,0,0,0-2.26,1.08,7.27,7.27,0,0,0-1.78,1.39,5.94,5.94,0,0,0-1.18,1.87,6.56,6.56,0,0,0-.43,2.49,5.18,5.18,0,0,0,.49,2.32,4.77,4.77,0,0,0,1.33,1.68,5.87,5.87,0,0,0,2,1A8.25,8.25,0,0,0,72,39.45ZM76.9,19.7a3.5,3.5,0,0,0-.36-1.65,3.59,3.59,0,0,0-.91-1.12,3.77,3.77,0,0,0-1.24-.65,4.84,4.84,0,0,0-1.34-.2,4.35,4.35,0,0,0-3,1,3.59,3.59,0,0,0-1.16,2.78,4.52,4.52,0,0,0,.24,1.49,4.89,4.89,0,0,0,.68,1.3,5.75,5.75,0,0,0,1,1.06,7.08,7.08,0,0,0,1.24.8,10.3,10.3,0,0,0,3.67-2A3.74,3.74,0,0,0,76.9,19.7Z" transform="translate(-8.66 -11.17)"/><path class="cls-3" d="M29.64,71.91H26.8v9.36a1.72,1.72,0,0,1-.36,1.2,1.21,1.21,0,0,1-.94.39,1.23,1.23,0,0,1-.94-.39,1.74,1.74,0,0,1-.36-1.2V71.91H21.35a1.49,1.49,0,0,1-1-.29,1,1,0,0,1-.32-.78,1,1,0,0,1,.34-.79,1.42,1.42,0,0,1,1-.29h8.29a1.45,1.45,0,0,1,1,.3,1.09,1.09,0,0,1,0,1.56A1.54,1.54,0,0,1,29.64,71.91Z" transform="translate(-8.66 -11.17)"/><path class="cls-3" d="M41,71.77H35.14v3.17h5.41a1.26,1.26,0,0,1,.89.26.91.91,0,0,1,.3.71,1,1,0,0,1-.29.72,1.29,1.29,0,0,1-.9.27H35.14v3.67h6.08a1.34,1.34,0,0,1,.93.28,1,1,0,0,1,.31.76,1,1,0,0,1-.31.75,1.34,1.34,0,0,1-.93.28H34.13a1.36,1.36,0,0,1-1.6-1.6V71.36a2.2,2.2,0,0,1,.16-.92,1.07,1.07,0,0,1,.53-.52,2.15,2.15,0,0,1,.91-.16H41a1.3,1.3,0,0,1,.92.28.9.9,0,0,1,.31.72.92.92,0,0,1-.31.73A1.3,1.3,0,0,1,41,71.77Z" transform="translate(-8.66 -11.17)"/><path class="cls-3" d="M55.51,78.57a3.52,3.52,0,0,1-.3,1.34,4.74,4.74,0,0,1-1,1.4,4.67,4.67,0,0,1-1.66,1.12,5.9,5.9,0,0,1-2.35.43,8.25,8.25,0,0,1-1.86-.19,5.3,5.3,0,0,1-1.51-.6A5.1,5.1,0,0,1,45.61,81a6.31,6.31,0,0,1-.87-1.36A7,7,0,0,1,44.2,78,8.75,8.75,0,0,1,44,76.22a7.85,7.85,0,0,1,.46-2.79,5.89,5.89,0,0,1,1.29-2.1,5.45,5.45,0,0,1,2-1.33,6.32,6.32,0,0,1,2.42-.46,6.08,6.08,0,0,1,2.78.62,4.94,4.94,0,0,1,1.87,1.55,3,3,0,0,1,.66,1.73,1.14,1.14,0,0,1-.32.79,1,1,0,0,1-.77.34,1.05,1.05,0,0,1-.75-.23,3.63,3.63,0,0,1-.56-.82,3.86,3.86,0,0,0-1.2-1.43,2.89,2.89,0,0,0-1.7-.48,3.1,3.1,0,0,0-2.56,1.22,5.61,5.61,0,0,0-.95,3.48,6.49,6.49,0,0,0,.42,2.5,3.17,3.17,0,0,0,1.2,1.49,3.33,3.33,0,0,0,1.81.49,3.19,3.19,0,0,0,1.9-.56,3.33,3.33,0,0,0,1.17-1.64,2.58,2.58,0,0,1,.42-.83.93.93,0,0,1,.79-.32,1.11,1.11,0,0,1,.8.33A1.06,1.06,0,0,1,55.51,78.57Z" transform="translate(-8.66 -11.17)"/><path class="cls-3" d="M60.49,71.12v3.69h5.63V71.12a1.78,1.78,0,0,1,.35-1.19,1.21,1.21,0,0,1,.94-.39,1.24,1.24,0,0,1,1,.39,1.66,1.66,0,0,1,.37,1.19V81.27a1.69,1.69,0,0,1-.37,1.2,1.25,1.25,0,0,1-1,.39,1.18,1.18,0,0,1-.94-.4,1.76,1.76,0,0,1-.35-1.19V76.94H60.49v4.33a1.74,1.74,0,0,1-.37,1.2,1.27,1.27,0,0,1-.95.39,1.16,1.16,0,0,1-.94-.4,1.71,1.71,0,0,1-.36-1.19V71.12a1.78,1.78,0,0,1,.35-1.19,1.21,1.21,0,0,1,1-.39,1.24,1.24,0,0,1,.95.39A1.71,1.71,0,0,1,60.49,71.12Z" transform="translate(-8.66 -11.17)"/><path class="cls-3" d="M79.9,71.91H77.05v9.36a1.72,1.72,0,0,1-.36,1.2,1.32,1.32,0,0,1-1.87,0,1.69,1.69,0,0,1-.37-1.2V71.91H71.6a1.48,1.48,0,0,1-1-.29,1.09,1.09,0,0,1,0-1.57,1.45,1.45,0,0,1,1-.29h8.3a1.47,1.47,0,0,1,1,.3,1.08,1.08,0,0,1,0,1.56A1.49,1.49,0,0,1,79.9,71.91Z" transform="translate(-8.66 -11.17)"/><path class="cls-3" d="M88.21,69.54a6.87,6.87,0,0,1,3.44.81,5.24,5.24,0,0,1,2.18,2.31,7.93,7.93,0,0,1,.74,3.52,8.63,8.63,0,0,1-.41,2.72A5.78,5.78,0,0,1,93,81a5.46,5.46,0,0,1-2,1.37,7.35,7.35,0,0,1-2.7.47,7.23,7.23,0,0,1-2.71-.48,5.39,5.39,0,0,1-2-1.38,5.69,5.69,0,0,1-1.21-2.14A8.38,8.38,0,0,1,82,76.17a8.5,8.5,0,0,1,.42-2.73,5.89,5.89,0,0,1,1.24-2.11,5.33,5.33,0,0,1,2-1.33A7,7,0,0,1,88.21,69.54Zm3.71,6.63a6.14,6.14,0,0,0-.45-2.46,3.46,3.46,0,0,0-1.31-1.57,3.6,3.6,0,0,0-2-.53,3.44,3.44,0,0,0-1.44.3,3.16,3.16,0,0,0-1.14.85,4.27,4.27,0,0,0-.76,1.44,6.64,6.64,0,0,0-.28,2,6.76,6.76,0,0,0,.28,2,4.28,4.28,0,0,0,.78,1.47,3.34,3.34,0,0,0,1.16.88,3.6,3.6,0,0,0,1.44.29,3.55,3.55,0,0,0,1.84-.5,3.49,3.49,0,0,0,1.34-1.55A6,6,0,0,0,91.92,76.17Z" transform="translate(-8.66 -11.17)"/><path class="cls-3" d="M102.47,69.54a6.89,6.89,0,0,1,3.44.81,5.29,5.29,0,0,1,2.18,2.31,7.93,7.93,0,0,1,.73,3.52,8.63,8.63,0,0,1-.4,2.72A5.93,5.93,0,0,1,107.21,81a5.41,5.41,0,0,1-2,1.37,7.27,7.27,0,0,1-2.7.47,7.18,7.18,0,0,1-2.7-.48,5.42,5.42,0,0,1-2-1.38,6,6,0,0,1-1.21-2.14,8.66,8.66,0,0,1-.41-2.69,8.49,8.49,0,0,1,.43-2.73,5.88,5.88,0,0,1,1.23-2.11,5.41,5.41,0,0,1,2-1.33A7.1,7.1,0,0,1,102.47,69.54Zm3.71,6.63a6,6,0,0,0-.46-2.46,3.45,3.45,0,0,0-1.3-1.57,3.65,3.65,0,0,0-2-.53,3.52,3.52,0,0,0-1.45.3,3.16,3.16,0,0,0-1.14.85,4.09,4.09,0,0,0-.75,1.44,6.33,6.33,0,0,0-.28,2,6.44,6.44,0,0,0,.28,2,4,4,0,0,0,.78,1.47,3.17,3.17,0,0,0,1.16.88,3.53,3.53,0,0,0,1.44.29,3.58,3.58,0,0,0,1.84-.5,3.47,3.47,0,0,0,1.33-1.55A6,6,0,0,0,106.18,76.17Z" transform="translate(-8.66 -11.17)"/><path class="cls-3" d="M113.61,71.12V80.5h5.3a1.38,1.38,0,0,1,1,.31,1,1,0,0,1,.34.77,1,1,0,0,1-.34.77,1.46,1.46,0,0,1-1,.29H112.6a1.68,1.68,0,0,1-1.22-.37A1.71,1.71,0,0,1,111,81V71.12a1.73,1.73,0,0,1,.36-1.19,1.21,1.21,0,0,1,.94-.39,1.24,1.24,0,0,1,1,.39A1.71,1.71,0,0,1,113.61,71.12Z" transform="translate(-8.66 -11.17)"/><path class="cls-3" d="M131,78.78a3.79,3.79,0,0,1-.6,2.1,4.07,4.07,0,0,1-1.76,1.46,6.62,6.62,0,0,1-2.75.52,6.22,6.22,0,0,1-3.15-.72,4.17,4.17,0,0,1-1.42-1.38,3.13,3.13,0,0,1-.55-1.69A1.13,1.13,0,0,1,122,77.92a1,1,0,0,1,.7.27,1.94,1.94,0,0,1,.49.78,5.78,5.78,0,0,0,.53,1,2.2,2.2,0,0,0,.81.68,2.93,2.93,0,0,0,1.36.27,3.06,3.06,0,0,0,1.88-.54,1.61,1.61,0,0,0,.73-1.35,1.41,1.41,0,0,0-.39-1,2.62,2.62,0,0,0-1-.62A16.31,16.31,0,0,0,125.4,77a12.37,12.37,0,0,1-2.32-.76A3.77,3.77,0,0,1,121.59,75a3,3,0,0,1-.55-1.87,3.25,3.25,0,0,1,.58-1.89A3.72,3.72,0,0,1,123.3,70a7,7,0,0,1,2.58-.44,6.6,6.6,0,0,1,2.06.29,4.35,4.35,0,0,1,1.43.79,3.26,3.26,0,0,1,.84,1,2.46,2.46,0,0,1,.26,1,1.2,1.2,0,0,1-.33.83,1,1,0,0,1-.82.38.93.93,0,0,1-.68-.23,3.09,3.09,0,0,1-.51-.73,3.2,3.2,0,0,0-.84-1.14,2.47,2.47,0,0,0-1.58-.41,2.69,2.69,0,0,0-1.63.45,1.29,1.29,0,0,0-.62,1.06,1.07,1.07,0,0,0,.21.67,1.78,1.78,0,0,0,.58.49,3.71,3.71,0,0,0,.75.31c.25.08.66.19,1.24.34a18.4,18.4,0,0,1,2,.56,5.53,5.53,0,0,1,1.5.75,3.05,3.05,0,0,1,1,1.11A3.6,3.6,0,0,1,131,78.78Z" transform="translate(-8.66 -11.17)"/><path class="cls-3" d="M43.61,92.55H40.77v9.37a1.71,1.71,0,0,1-.36,1.19,1.19,1.19,0,0,1-.94.4,1.24,1.24,0,0,1-.94-.4,1.71,1.71,0,0,1-.36-1.19V92.55H35.32a1.44,1.44,0,0,1-1-.29,1,1,0,0,1-.32-.78,1,1,0,0,1,.34-.79,1.47,1.47,0,0,1,1-.29h8.29a1.45,1.45,0,0,1,1,.3,1.09,1.09,0,0,1,0,1.56A1.49,1.49,0,0,1,43.61,92.55Z" transform="translate(-8.66 -11.17)"/><path class="cls-3" d="M50,97.78h-.91v4.14a1.72,1.72,0,0,1-.36,1.2,1.34,1.34,0,0,1-1.91,0,1.77,1.77,0,0,1-.34-1.18V92a1.37,1.37,0,0,1,1.6-1.6h4.24a12.86,12.86,0,0,1,1.51.08,3.84,3.84,0,0,1,1.12.3,3.14,3.14,0,0,1,1.07.73,3.06,3.06,0,0,1,.71,1.1A3.69,3.69,0,0,1,57,93.94a3.25,3.25,0,0,1-.81,2.31,4.68,4.68,0,0,1-2.46,1.22A4.67,4.67,0,0,1,55,98.56a11.18,11.18,0,0,1,1.13,1.53,12,12,0,0,1,.78,1.47,3,3,0,0,1,.27.9.87.87,0,0,1-.16.5,1.21,1.21,0,0,1-.44.4,1.38,1.38,0,0,1-.65.15,1.24,1.24,0,0,1-.74-.21,2.14,2.14,0,0,1-.52-.52c-.14-.21-.34-.53-.58-.94l-1-1.74a9.77,9.77,0,0,0-1-1.45,2.47,2.47,0,0,0-.9-.69A3.21,3.21,0,0,0,50,97.78Zm1.5-5.42H49.09V95.9h2.34A6.52,6.52,0,0,0,53,95.74a1.88,1.88,0,0,0,1-.55,1.57,1.57,0,0,0,.34-1.08,1.65,1.65,0,0,0-.27-.94,1.72,1.72,0,0,0-.76-.62A5.72,5.72,0,0,0,51.5,92.36Z" transform="translate(-8.66 -11.17)"/><path class="cls-3" d="M67.69,101.83l-.62-1.62H61.83l-.61,1.65a5.77,5.77,0,0,1-.62,1.31,1,1,0,0,1-.83.34,1.22,1.22,0,0,1-.87-.36,1.13,1.13,0,0,1-.38-.82,1.81,1.81,0,0,1,.09-.55c.06-.18.15-.45.29-.78l3.29-8.37c.1-.24.21-.53.34-.86a3.64,3.64,0,0,1,.43-.84,1.68,1.68,0,0,1,.58-.54,1.81,1.81,0,0,1,.9-.21,1.78,1.78,0,0,1,.91.21,1.68,1.68,0,0,1,.59.53,3.64,3.64,0,0,1,.38.7l.39,1,3.37,8.31a4.19,4.19,0,0,1,.39,1.38,1.13,1.13,0,0,1-.37.82,1.28,1.28,0,0,1-1.43.27,1.35,1.35,0,0,1-.37-.3,3.18,3.18,0,0,1-.32-.58Zm-5.17-3.58h3.85l-1.94-5.32Z" transform="translate(-8.66 -11.17)"/><path class="cls-3" d="M74,90.4h3.4a8.84,8.84,0,0,1,2.27.25,4.15,4.15,0,0,1,1.73.92,6.52,6.52,0,0,1,2,5.24,10.68,10.68,0,0,1-.2,2.12,6.38,6.38,0,0,1-.63,1.72A5.32,5.32,0,0,1,81.51,102a4.45,4.45,0,0,1-1.13.75,5.18,5.18,0,0,1-1.32.39,9.74,9.74,0,0,1-1.6.12h-3.4a2.16,2.16,0,0,1-1.07-.22,1,1,0,0,1-.47-.61,3.53,3.53,0,0,1-.11-1V92a1.64,1.64,0,0,1,.38-1.22A1.67,1.67,0,0,1,74,90.4Zm1,2.07v8.74h2c.43,0,.77,0,1,0a3.72,3.72,0,0,0,.77-.18,2,2,0,0,0,.68-.39c.88-.74,1.31-2,1.31-3.82a5.7,5.7,0,0,0-.57-2.86,2.57,2.57,0,0,0-1.42-1.2,6.75,6.75,0,0,0-2-.26Z" transform="translate(-8.66 -11.17)"/><path class="cls-3" d="M85.82,101.92V91.76a1.7,1.7,0,0,1,.36-1.18,1.18,1.18,0,0,1,.93-.4,1.27,1.27,0,0,1,1,.39,1.71,1.71,0,0,1,.36,1.19v10.16a1.71,1.71,0,0,1-.36,1.19,1.28,1.28,0,0,1-1,.4,1.25,1.25,0,0,1-.93-.4A1.75,1.75,0,0,1,85.82,101.92Z" transform="translate(-8.66 -11.17)"/><path class="cls-3" d="M94.75,91.75l5,7.59V91.68a1.68,1.68,0,0,1,.32-1.13,1.1,1.1,0,0,1,.86-.37,1.15,1.15,0,0,1,.89.37,1.68,1.68,0,0,1,.33,1.13v10.13c0,1.13-.47,1.7-1.41,1.7a1.81,1.81,0,0,1-.63-.11,1.4,1.4,0,0,1-.53-.32,2.86,2.86,0,0,1-.46-.51l-.42-.6-4.89-7.51V102a1.62,1.62,0,0,1-.35,1.12,1.14,1.14,0,0,1-.88.38,1.1,1.1,0,0,1-.88-.39,1.59,1.59,0,0,1-.34-1.11V92.07a2.89,2.89,0,0,1,.14-1,1.4,1.4,0,0,1,.56-.65,1.45,1.45,0,0,1,.83-.25,1.34,1.34,0,0,1,.6.12,1.23,1.23,0,0,1,.44.3,3.11,3.11,0,0,1,.39.5Z" transform="translate(-8.66 -11.17)"/><path class="cls-3" d="M116.79,98.05v2.47a2.69,2.69,0,0,1-.09.78,1.35,1.35,0,0,1-.36.54,3.29,3.29,0,0,1-.66.45,11,11,0,0,1-2.25.93,9.3,9.3,0,0,1-2.36.29,7.82,7.82,0,0,1-2.71-.46,5.76,5.76,0,0,1-2.08-1.33A5.91,5.91,0,0,1,105,99.61a7.81,7.81,0,0,1-.46-2.77,8.3,8.3,0,0,1,.44-2.75A5.69,5.69,0,0,1,106.26,92a5.84,5.84,0,0,1,2.12-1.33,8.08,8.08,0,0,1,2.83-.46,7,7,0,0,1,2.3.35,5.11,5.11,0,0,1,1.63.87,3.84,3.84,0,0,1,.94,1.12,2.28,2.28,0,0,1,.32,1,1.12,1.12,0,0,1-.37.83,1.18,1.18,0,0,1-.87.35,1.13,1.13,0,0,1-.54-.13,1.21,1.21,0,0,1-.44-.37,9.64,9.64,0,0,0-.82-1.14,2.49,2.49,0,0,0-.9-.65,3.33,3.33,0,0,0-1.44-.27,3.93,3.93,0,0,0-1.62.32,3.37,3.37,0,0,0-1.22.9,4.23,4.23,0,0,0-.77,1.46,6.32,6.32,0,0,0-.27,1.9,5.23,5.23,0,0,0,1,3.49,3.61,3.61,0,0,0,2.91,1.22,5.87,5.87,0,0,0,1.7-.23,8.8,8.8,0,0,0,1.61-.68V98.48h-2a2.16,2.16,0,0,1-1.1-.22.81.81,0,0,1-.38-.75.94.94,0,0,1,.31-.71,1.23,1.23,0,0,1,.85-.28h3a3.5,3.5,0,0,1,.92.1,1,1,0,0,1,.61.43A1.78,1.78,0,0,1,116.79,98.05Z" transform="translate(-8.66 -11.17)"/><path class="cls-4" d="M26,112.61l3.18-3.2a.75.75,0,0,1,.51-.24.71.71,0,0,1,.47.22.73.73,0,0,1,.23.47.68.68,0,0,1-.22.51L27,113.63a.68.68,0,0,1-.52.24.88.88,0,0,1-.76-.74A.65.65,0,0,1,26,112.61Z" transform="translate(-8.66 -11.17)"/><path class="cls-4" d="M32.57,112.58c-.08,1.42-.12,2.86-.12,4.3l2.13-2.66a.7.7,0,0,1,.44-.29.63.63,0,0,1,.45.15.61.61,0,0,1,.25.41.68.68,0,0,1-.17.49l-2.75,3.57a.67.67,0,0,1-1.07.12,1.18,1.18,0,0,1-.25-.25,1,1,0,0,1-.14-.3,1.2,1.2,0,0,1-.05-.33c0-.12,0-.24,0-.36,0-1.43,0-2.85.13-4.25L29.2,115.7a.66.66,0,0,1-.48.24.64.64,0,0,1-.47-.2.7.7,0,0,1-.26-.46.63.63,0,0,1,.19-.49l3-3.26a1.29,1.29,0,0,1,.35-.28.7.7,0,0,1,.41,0,.81.81,0,0,1,.39.2,1,1,0,0,1,.2.25.73.73,0,0,1,.08.25,1.5,1.5,0,0,1,0,.3C32.59,112.34,32.58,112.46,32.57,112.58Z" transform="translate(-8.66 -11.17)"/><path class="cls-4" d="M37.71,115.89l1.41,1a5.55,5.55,0,0,1,.9.73,2.25,2.25,0,0,1,.5.81,2.8,2.8,0,0,1-.35,2.53,3.73,3.73,0,0,1-.58.74,2.26,2.26,0,0,1-.69.48,2.2,2.2,0,0,1-.81.21,2.34,2.34,0,0,1-.7-.05,2.8,2.8,0,0,1-.7-.25,5.57,5.57,0,0,1-.75-.44c-.52-.35-1-.7-1.53-1.07a1.32,1.32,0,0,1-.43-.42.49.49,0,0,1,0-.37,1.48,1.48,0,0,1,.22-.4L36.64,116a.7.7,0,0,1,.47-.33A1,1,0,0,1,37.71,115.89Zm-.11,1c-.74,1.06-1.49,2.11-2.24,3.17l.88.61a4.16,4.16,0,0,0,.47.3,1.52,1.52,0,0,0,.39.16,1,1,0,0,0,.4.06,1.91,1.91,0,0,0,1.5-1,2.25,2.25,0,0,0,.44-1.23,1.31,1.31,0,0,0-.31-.85,4.36,4.36,0,0,0-.8-.68Z" transform="translate(-8.66 -11.17)"/><path class="cls-4" d="M40.09,123.54l2.29-3.89a.7.7,0,0,1,.42-.37.66.66,0,0,1,.49.08.69.69,0,0,1,.33.39.72.72,0,0,1-.1.55l-2.21,3.94a.67.67,0,0,1-.43.36.72.72,0,0,1-.54-.1.72.72,0,0,1-.34-.41A.67.67,0,0,1,40.09,123.54Z" transform="translate(-8.66 -11.17)"/><path class="cls-4" d="M46.64,126.9v-.79c-.83-.39-1.66-.79-2.48-1.21l-.63.51a2.46,2.46,0,0,1-.56.36.57.57,0,0,1-.47-.08.68.68,0,0,1-.33-.36.45.45,0,0,1,0-.42.9.9,0,0,1,.16-.19l.3-.23c1.1-.81,2.18-1.65,3.23-2.51l.32-.26a1.6,1.6,0,0,1,.36-.24.75.75,0,0,1,.37-.09,1.14,1.14,0,0,1,.44.11,1,1,0,0,1,.36.28.81.81,0,0,1,.16.34,1.47,1.47,0,0,1,0,.36c0,.12,0,.28,0,.48,0,1.36,0,2.72.07,4.09a1.77,1.77,0,0,1-.05.64.5.5,0,0,1-.33.26.75.75,0,0,1-.51,0,.91.91,0,0,1-.24-.16.47.47,0,0,1-.12-.2.87.87,0,0,1-.05-.31C46.65,127.11,46.64,127,46.64,126.9Zm-1.77-2.61c.6.3,1.2.59,1.81.87,0-.85.06-1.71.12-2.56Z" transform="translate(-8.66 -11.17)"/><path class="cls-4" d="M54.13,128.13,53,127.74l-.54,1.53a.66.66,0,0,1-.36.43.67.67,0,0,1-.52,0,.73.73,0,0,1-.42-.34.68.68,0,0,1,0-.56c.51-1.38,1-2.75,1.54-4.13a.7.7,0,0,1,.38-.45,1,1,0,0,1,.63.06l1.55.54a4.67,4.67,0,0,1,1,.44,1.85,1.85,0,0,1,.54.5,1.44,1.44,0,0,1,.25.66,1.64,1.64,0,0,1-.06.75,1.52,1.52,0,0,1-1,1.09A3,3,0,0,1,54.13,128.13Zm.53-2.59-.82-.28-.59,1.65.85.29a2.92,2.92,0,0,0,.77.17.84.84,0,0,0,.54-.13.71.71,0,0,0,.31-.43.81.81,0,0,0,0-.67A1.83,1.83,0,0,0,54.66,125.54Z" transform="translate(-8.66 -11.17)"/><path class="cls-4" d="M59.37,129.42l-.45-.11-.46,1.78a.67.67,0,0,1-.32.47.7.7,0,0,1-.52,0,.61.61,0,0,1-.48-.86l1.17-4.25a.66.66,0,0,1,.32-.47.86.86,0,0,1,.62,0c.67.17,1.34.34,2,.49.27.06.51.13.7.19a2.2,2.2,0,0,1,.51.25,1.51,1.51,0,0,1,.45.42,1.42,1.42,0,0,1,.24.55,1.35,1.35,0,0,1,0,.6,1.33,1.33,0,0,1-.6.93,2.44,2.44,0,0,1-1.34.27,2.63,2.63,0,0,1,.57.62,5.93,5.93,0,0,1,.43.78,5.59,5.59,0,0,1,.27.72,1,1,0,0,1,.06.42.38.38,0,0,1-.12.21.56.56,0,0,1-.27.12.69.69,0,0,1-.35,0,.76.76,0,0,1-.36-.17,1,1,0,0,1-.22-.28l-.21-.47c-.13-.29-.25-.58-.37-.87a3.77,3.77,0,0,0-.36-.75,1.22,1.22,0,0,0-.38-.4A1.9,1.9,0,0,0,59.37,129.42Zm1.29-2.16L59.51,127l-.39,1.53,1.15.28a3.7,3.7,0,0,0,.79.11,1,1,0,0,0,.54-.14.63.63,0,0,0,.26-.43.67.67,0,0,0,0-.44.83.83,0,0,0-.31-.34A3,3,0,0,0,60.66,127.26Z" transform="translate(-8.66 -11.17)"/><path class="cls-4" d="M63.82,132.23l.77-4.44a.7.7,0,0,1,.27-.49.58.58,0,0,1,.47-.1.64.64,0,0,1,.43.24.7.7,0,0,1,.09.55c-.23,1.49-.46,3-.68,4.46a.69.69,0,0,1-.28.5.65.65,0,0,1-.52.09.64.64,0,0,1-.45-.25A.69.69,0,0,1,63.82,132.23Z" transform="translate(-8.66 -11.17)"/><path class="cls-4" d="M68.19,128.37c.32,1.33.67,2.65,1,4q.93-1.84,1.8-3.72c.09-.2.15-.34.19-.41a.66.66,0,0,1,.2-.21.64.64,0,0,1,.36-.07.75.75,0,0,1,.29.09.7.7,0,0,1,.21.21.5.5,0,0,1,.06.26.67.67,0,0,1,0,.18c0,.07,0,.13-.08.19l-.09.19q-.87,1.83-1.83,3.63-.1.21-.21.39a1.31,1.31,0,0,1-.23.32.83.83,0,0,1-.32.22,1.23,1.23,0,0,1-.48,0,1.14,1.14,0,0,1-.46-.14.83.83,0,0,1-.28-.28,1.2,1.2,0,0,1-.17-.36c0-.13-.09-.27-.13-.42-.38-1.29-.75-2.58-1.08-3.87a1.6,1.6,0,0,0,0-.21,1.43,1.43,0,0,1,0-.22.6.6,0,0,1,0-.19.48.48,0,0,1,.22-.34.66.66,0,0,1,.46-.11.54.54,0,0,1,.43.24A2.48,2.48,0,0,1,68.19,128.37Z" transform="translate(-8.66 -11.17)"/><path class="cls-4" d="M76.94,133.24l-.33-.72q-1.35,0-2.7,0c-.12.24-.23.49-.35.73a2.14,2.14,0,0,1-.34.56.53.53,0,0,1-.44.14.66.66,0,0,1-.45-.19.43.43,0,0,1-.18-.37.53.53,0,0,1,.06-.24c0-.08.09-.19.16-.34.64-1.21,1.24-2.42,1.81-3.65l.18-.38a2.43,2.43,0,0,1,.21-.37,1,1,0,0,1,.29-.23,1,1,0,0,1,.44-.09.93.93,0,0,1,.73.33,1.92,1.92,0,0,1,.18.31l.19.45q.84,1.84,1.77,3.66a1.74,1.74,0,0,1,.23.61.5.5,0,0,1-.19.37.73.73,0,0,1-.47.18.64.64,0,0,1-.28-.05.62.62,0,0,1-.19-.12,1,1,0,0,1-.17-.26A3.1,3.1,0,0,1,76.94,133.24Zm-2.66-1.61c.66,0,1.31,0,2,0-.33-.78-.65-1.57-1-2.36C75,130.07,74.63,130.85,74.28,131.63Z" transform="translate(-8.66 -11.17)"/><path class="cls-4" d="M82.52,128.8l-1.4.13c.11,1.38.21,2.76.32,4.14a.69.69,0,0,1-.15.55.76.76,0,0,1-1,.06.65.65,0,0,1-.22-.52L79.85,129l-1.4.07A.76.76,0,0,1,78,129a.41.41,0,0,1-.17-.34.43.43,0,0,1,.15-.36.87.87,0,0,1,.47-.14c1.34-.05,2.68-.14,4-.27a.81.81,0,0,1,.5.08.45.45,0,0,1,.2.33.42.42,0,0,1-.13.36A.75.75,0,0,1,82.52,128.8Z" transform="translate(-8.66 -11.17)"/><path class="cls-4" d="M88,128c-.94.17-1.9.32-2.85.46l.19,1.39c.9-.13,1.8-.27,2.69-.43a.74.74,0,0,1,.46,0,.37.37,0,0,1,.2.28.38.38,0,0,1-.08.34.64.64,0,0,1-.43.2c-.9.17-1.81.31-2.72.44l.23,1.61c1-.15,2.09-.31,3.12-.51a.87.87,0,0,1,.5,0,.4.4,0,0,1,.23.3.44.44,0,0,1-.1.36.79.79,0,0,1-.46.21c-1.22.23-2.46.42-3.69.58a1,1,0,0,1-.66-.08.67.67,0,0,1-.26-.52l-.51-4.27a.92.92,0,0,1,0-.42.47.47,0,0,1,.22-.26,1.37,1.37,0,0,1,.43-.13c1.1-.14,2.21-.31,3.3-.51a.64.64,0,0,1,.47,0,.37.37,0,0,1,.2.28.39.39,0,0,1-.08.35A.7.7,0,0,1,88,128Z" transform="translate(-8.66 -11.17)"/><path class="cls-4" d="M93.05,126.55l1.08,4c.89-.24,1.77-.49,2.66-.76a.78.78,0,0,1,.52,0,.42.42,0,0,1,.28.27.4.4,0,0,1-.07.38.85.85,0,0,1-.45.28c-1.07.33-2.14.63-3.22.91a1,1,0,0,1-.67,0,.7.7,0,0,1-.32-.48l-1-4.28a.8.8,0,0,1,0-.56.69.69,0,0,1,.9-.22A.7.7,0,0,1,93.05,126.55Z" transform="translate(-8.66 -11.17)"/><path class="cls-4" d="M98.46,129.65c-.48-1.43-1-2.86-1.43-4.29a.65.65,0,0,1,0-.55.61.61,0,0,1,.37-.31.62.62,0,0,1,.5,0,.7.7,0,0,1,.35.44c.5,1.41,1,2.83,1.51,4.25a.64.64,0,0,1,0,.56.69.69,0,0,1-.42.34.71.71,0,0,1-.52,0A.7.7,0,0,1,98.46,129.65Z" transform="translate(-8.66 -11.17)"/><path class="cls-4" d="M103.25,127.58c-.81-1-1.6-2-2.37-3l1.47,3.67a.59.59,0,0,1-.35.85.64.64,0,0,1-.49,0,.63.63,0,0,1-.34-.4l-1.61-4.23a.55.55,0,0,1,0-.55,1.08,1.08,0,0,1,.5-.34l.37-.14a1.53,1.53,0,0,1,.5-.14.39.39,0,0,1,.3.1,3,3,0,0,1,.36.39c.69.85,1.39,1.69,2.11,2.52-.12-1.09-.25-2.18-.4-3.26a3,3,0,0,1,0-.53.46.46,0,0,1,.13-.29,1.63,1.63,0,0,1,.45-.27l.36-.17a1.2,1.2,0,0,1,.59-.14.56.56,0,0,1,.42.36c.66,1.36,1.33,2.71,2,4.07a.62.62,0,0,1,.06.52.7.7,0,0,1-.36.36.62.62,0,0,1-.48,0,.59.59,0,0,1-.37-.37l-1.68-3.58c.2,1.25.39,2.5.55,3.76,0,.25,0,.43.06.55a.72.72,0,0,1-.11.38.83.83,0,0,1-.41.33,1,1,0,0,1-.42.08.75.75,0,0,1-.33-.1,1.71,1.71,0,0,1-.25-.22Z" transform="translate(-8.66 -11.17)"/><path class="cls-4" d="M108.53,125.4l-2.07-4a.71.71,0,0,1-.09-.55.63.63,0,0,1,.33-.37.6.6,0,0,1,.5-.07.68.68,0,0,1,.41.38q1.08,2,2.15,4a.69.69,0,0,1,.08.56.82.82,0,0,1-.9.48A.68.68,0,0,1,108.53,125.4Z" transform="translate(-8.66 -11.17)"/><path class="cls-4" d="M112.69,118.14l-1.22.79,2.21,3.52a.72.72,0,0,1,.12.56.77.77,0,0,1-.34.42.75.75,0,0,1-.53.11.66.66,0,0,1-.45-.35l-2.14-3.57-1.24.73a.75.75,0,0,1-.5.13.39.39,0,0,1-.31-.22.42.42,0,0,1,0-.39.87.87,0,0,1,.36-.35c1.2-.68,2.38-1.41,3.54-2.17a.73.73,0,0,1,.49-.17.41.41,0,0,1,.34.19.43.43,0,0,1,.05.38A.79.79,0,0,1,112.69,118.14Z" transform="translate(-8.66 -11.17)"/><path class="cls-4" d="M117.37,114.67c-.79.63-1.59,1.24-2.41,1.83l.82,1.14c.77-.55,1.53-1.13,2.27-1.71a.79.79,0,0,1,.45-.2.36.36,0,0,1,.32.14.4.4,0,0,1,.07.35.71.71,0,0,1-.29.39c-.76.6-1.53,1.18-2.3,1.74l1,1.32c.89-.64,1.77-1.31,2.64-2a.8.8,0,0,1,.47-.22.39.39,0,0,1,.35.15.38.38,0,0,1,.07.37.79.79,0,0,1-.32.42c-1,.82-2.07,1.6-3.13,2.35a1,1,0,0,1-.64.25.63.63,0,0,1-.48-.33l-2.44-3.54a.93.93,0,0,1-.17-.39.53.53,0,0,1,.09-.34,1.45,1.45,0,0,1,.33-.32c1-.67,1.88-1.37,2.8-2.1a.77.77,0,0,1,.45-.2.39.39,0,0,1,.32.15.41.41,0,0,1,.08.35A.75.75,0,0,1,117.37,114.67Z" transform="translate(-8.66 -11.17)"/><path class="cls-4" d="M118.84,112.3c.45-.38.88-.77,1.32-1.17a7.18,7.18,0,0,1,.94-.72,2.57,2.57,0,0,1,.93-.32,2.75,2.75,0,0,1,2.4.91,3.66,3.66,0,0,1,.59.75,2.51,2.51,0,0,1,.29.79,2.27,2.27,0,0,1,0,.86,2.48,2.48,0,0,1-.23.68,3.14,3.14,0,0,1-.42.63,6.14,6.14,0,0,1-.62.65c-.48.43-1,.85-1.43,1.26a1.55,1.55,0,0,1-.52.32.51.51,0,0,1-.37,0,1.34,1.34,0,0,1-.34-.31c-.9-1.07-1.8-2.14-2.69-3.22a.67.67,0,0,1-.2-.54A.92.92,0,0,1,118.84,112.3Zm1,.35,2.56,2.93.81-.73a5.64,5.64,0,0,0,.41-.39,1.87,1.87,0,0,0,.26-.35,1.29,1.29,0,0,0,.16-.39,1.87,1.87,0,0,0-.64-1.72,2.22,2.22,0,0,0-1.1-.71,1.42,1.42,0,0,0-.92.12,5.16,5.16,0,0,0-.87.64Z" transform="translate(-8.66 -11.17)"/></svg>