<?xml version="1.0" encoding="utf-8"?>
<!-- Generator: Adobe Illustrator 26.0.1, SVG Export Plug-In . SVG Version: 6.00 Build 0)  -->
<svg version="1.1" id="Layer_1" xmlns="http://www.w3.org/2000/svg" xmlns:xlink="http://www.w3.org/1999/xlink" x="0px" y="0px"
	 viewBox="0 0 153.8 140.5" style="enable-background:new 0 0 153.8 140.5;" xml:space="preserve">
<style type="text/css">
	.st0{fill:none;stroke:#E30613;stroke-width:3;stroke-miterlimit:10;}
	.st1{fill:#D31319;}
	.st2{fill:#878686;}
</style>
<g>
	<circle class="st0" cx="36.3" cy="30.9" r="21.2"/>
	<circle class="st0" cx="115.4" cy="30.7" r="21.2"/>
	<g>
		<path class="st1" d="M25.5,32.5L23,28.9l16.2-11.5l2.6,3.6l-5.8,4.1L47,40.8l-4.6,3.3L31.3,28.4L25.5,32.5z"/>
	</g>
	<g>
		<path class="st1" d="M109.9,20.4l2.3-3.8L129,26.9l-2.3,3.8l-6-3.7l-10.1,16.4l-4.9-3l10.1-16.4L109.9,20.4z"/>
	</g>
	<g>
		<path class="st1" d="M86.5,36.8c-0.6,0-1.2-0.1-1.8-0.3s-1-0.5-1.4-0.8c-0.5-0.4-0.8-0.7-1.2-1.2c-0.4-0.5-0.8-1-1.3-1.7
			c-0.5,0.6-1,1-1.6,1.5c-0.6,0.5-1.3,0.9-2,1.3c-0.7,0.4-1.6,0.6-2.4,0.9C74,36.7,73,36.9,72,36.9c-1.3,0-2.4-0.2-3.4-0.5
			c-1-0.3-1.9-0.8-2.7-1.4c-0.7-0.6-1.3-1.4-1.8-2.3c-0.4-0.9-0.6-1.9-0.6-3.1c0-1.8,0.5-3.4,1.5-4.7c1-1.3,2.4-2.3,4.2-3.1
			c-0.4-0.3-0.7-0.6-1-0.9c-0.3-0.4-0.6-0.7-0.9-1.2c-0.3-0.5-0.5-0.9-0.6-1.5c-0.2-0.6-0.3-1.1-0.3-1.8c0-0.9,0.2-1.8,0.5-2.5
			c0.4-0.7,0.8-1.4,1.4-1.8c0.6-0.5,1.3-0.9,2-1.1c0.8-0.3,1.7-0.4,2.6-0.4s1.8,0.1,2.5,0.4c0.7,0.3,1.4,0.6,1.9,1.1
			c0.6,0.5,0.9,1,1.3,1.8c0.3,0.6,0.5,1.4,0.5,2.2c0,1.4-0.4,2.6-1.2,3.6c-0.8,1-1.9,1.8-3.6,2.4c0.8,0.3,1.5,0.7,2.2,1.2
			s1.3,1,1.8,1.6c0.5,0.6,1.1,1.2,1.6,1.8c0.5,0.6,0.9,1.3,1.4,2c0.9-1.4,1.7-2.9,2.1-4.4c0.5-1.7,0.7-3.3,0.7-5.1
			c0-0.5,0-0.9-0.1-1.3c-0.1-0.4-0.1-0.8-0.2-1.2h2.8c0.1,0.4,0.2,0.7,0.2,1.1s0,0.7,0.1,1.3c0,1.1-0.1,2.2-0.4,3.2
			c-0.2,1.1-0.6,2.1-0.9,3.2c-0.4,1-0.8,2-1.3,3c-0.5,0.9-1,1.8-1.6,2.6c0.4,0.6,0.7,1.1,1.1,1.5c0.4,0.4,0.6,0.7,1,1.1
			c0.4,0.4,0.7,0.5,1,0.6c0.4,0.1,0.7,0.2,1.2,0.2c0.4,0,0.7-0.1,1-0.2c0.4-0.1,0.7-0.2,1.1-0.4v2.7c-0.5,0.2-0.8,0.3-1.3,0.4
			C87.4,36.8,86.9,36.8,86.5,36.8z M71.9,34.3c0.9,0,1.7-0.1,2.4-0.3c0.7-0.2,1.4-0.5,2-0.8c0.6-0.4,1.2-0.7,1.7-1.1
			c0.6-0.5,1-0.9,1.4-1.4c-0.7-1.1-1.4-2.1-1.9-2.9c-0.6-0.8-1.2-1.5-1.8-2.1c-0.6-0.6-1.3-1.1-1.9-1.5c-0.6-0.5-1.5-0.8-2.4-1.2
			c-0.7,0.3-1.4,0.6-2,1c-0.6,0.4-1.1,0.8-1.6,1.3c-0.5,0.5-0.8,1.1-1,1.8c-0.3,0.6-0.4,1.4-0.4,2.3c0,0.8,0.2,1.6,0.5,2.1
			c0.3,0.6,0.6,1.1,1.2,1.6c0.6,0.5,1.1,0.7,1.8,0.9C70.4,34.1,71.1,34.3,71.9,34.3z M76.3,16c0-0.6-0.1-1.1-0.3-1.5
			c-0.2-0.5-0.5-0.7-0.8-1s-0.7-0.5-1.1-0.6c-0.4-0.1-0.8-0.2-1.2-0.2c-1.1,0-2,0.3-2.7,0.9c-0.6,0.6-1,1.5-1,2.6
			c0,0.5,0.1,0.9,0.2,1.4c0.2,0.5,0.4,0.8,0.6,1.2c0.3,0.4,0.6,0.7,0.9,1s0.7,0.6,1.1,0.7c1.5-0.6,2.6-1.1,3.2-1.8
			S76.3,17.1,76.3,16z"/>
	</g>
</g>
<g>
	<path d="M30.8,66.7v-2h9v2h-3.3V75h-2.6v-8.3H30.8z"/>
	<path d="M48.4,64.7v2h-4.9v2.2h4.1v1.9h-4.1v2.5h4.9V75h-7.5V64.7H48.4z"/>
	<path d="M49.2,69.6c0-1,0.2-1.9,0.5-2.7c0.3-0.7,0.9-1.3,1.6-1.8c0.7-0.4,1.5-0.6,2.4-0.6c1.3,0,2.4,0.3,3.2,1
		c0.8,0.6,1.3,1.5,1.3,2.7h-2.6c0-0.6-0.2-1-0.5-1.3s-0.8-0.4-1.4-0.4s-1.1,0.2-1.4,0.7c-0.3,0.4-0.4,1.2-0.4,2.2v0.7
		c0,1.1,0.1,1.9,0.4,2.4c0.3,0.5,0.8,0.7,1.5,0.7c0.7,0,1.1-0.1,1.4-0.4c0.3-0.3,0.4-0.7,0.5-1.2h2.6c0,0.7-0.2,1.3-0.7,1.9
		c-0.4,0.5-0.9,0.9-1.5,1.2c-0.7,0.3-1.4,0.4-2.3,0.4c-1.4,0-2.5-0.4-3.4-1.3c-0.9-0.9-1.2-2.2-1.2-3.7v-0.4H49.2z"/>
	<path d="M59.5,75V64.7h2.6v4.1h3.8v-4.1h2.6V75h-2.6v-4.3h-3.8V75H59.5z"/>
	<path d="M73.3,66.7v-2h9v2h-3.3V75h-2.6v-8.3H73.3z"/>
	<path d="M83.2,70.2v-0.6c0-1,0.2-1.9,0.5-2.7c0.4-0.7,1-1.3,1.6-1.8c0.8-0.4,1.5-0.6,2.5-0.6c0.9,0,1.7,0.2,2.5,0.6
		c0.8,0.4,1.3,1,1.6,1.8c0.4,0.7,0.7,1.6,0.7,2.6V70c0,1-0.2,1.9-0.5,2.7c-0.3,0.8-1,1.3-1.6,1.8C89.7,74.8,89,75,88,75
		s-1.7-0.2-2.5-0.6s-1.3-0.9-1.6-1.8C83.4,72.1,83.2,71.2,83.2,70.2z M86.3,72.4c0.3,0.5,0.9,0.8,1.5,0.8c0.7,0,1.2-0.3,1.5-0.8
		c0.3-0.5,0.5-1.3,0.5-2.3v-0.5c0-1-0.2-1.8-0.5-2.4c-0.3-0.4-0.8-0.6-1.4-0.6c-1.3,0-2,0.9-2.1,2.8v0.7
		C85.8,71.1,86,71.8,86.3,72.4z"/>
	<path d="M93.7,70.2v-0.6c0-1,0.2-1.9,0.5-2.7c0.4-0.7,1-1.3,1.6-1.8c0.8-0.4,1.5-0.6,2.5-0.6c0.9,0,1.7,0.2,2.5,0.6s1.3,1,1.6,1.8
		c0.4,0.7,0.7,1.6,0.7,2.6V70c0,1-0.2,1.9-0.5,2.7s-1,1.3-1.6,1.8c-0.8,0.4-1.5,0.6-2.5,0.6c-1,0-1.7-0.2-2.5-0.6s-1.3-0.9-1.6-1.8
		C94,72.1,93.7,71.2,93.7,70.2z M96.9,72.4c0.3,0.5,0.9,0.8,1.5,0.8s1.2-0.3,1.5-0.8c0.3-0.5,0.5-1.3,0.5-2.3v-0.5
		c0-1-0.2-1.8-0.5-2.4c-0.3-0.5-0.9-0.8-1.5-0.8c-1.3,0-2,0.9-2.1,2.8v0.7C96.3,71.1,96.6,71.8,96.9,72.4z"/>
	<path d="M107.1,73.1h4.6v2h-7.2V64.7h2.6V73.1z"/>
	<path d="M112.4,71.6h2.6c0,0.5,0.1,0.9,0.4,1.2c0.3,0.3,0.8,0.4,1.4,0.4c0.4,0,0.8-0.1,1-0.3c0.2-0.2,0.3-0.4,0.3-0.7
		c0-0.4-0.1-0.6-0.4-0.8c-0.2-0.2-0.8-0.4-1.4-0.6c-0.7-0.2-1.2-0.4-1.6-0.6c-1.4-0.6-2.1-1.5-2.1-2.7c0-0.6,0.2-1,0.5-1.5
		c0.3-0.4,0.9-0.7,1.5-1c0.7-0.3,1.3-0.4,2.2-0.4c0.8,0,1.5,0.1,2.1,0.4c0.7,0.3,1.1,0.6,1.4,1.1c0.3,0.5,0.5,1,0.5,1.6h-2.6
		c0-0.4-0.1-0.7-0.4-0.9c-0.2-0.2-0.7-0.3-1.1-0.3s-0.9,0.1-1.1,0.3c-0.2,0.2-0.4,0.4-0.4,0.7c0,0.3,0.1,0.5,0.4,0.7
		c0.3,0.2,0.9,0.4,1.5,0.6c0.7,0.2,1.4,0.5,1.8,0.7c1.2,0.6,1.7,1.5,1.7,2.7c0,0.9-0.3,1.6-1.1,2.2c-0.8,0.5-1.7,0.7-2.9,0.7
		c-0.9,0-1.6-0.1-2.4-0.4c-0.8-0.3-1.2-0.7-1.6-1.2C112.5,73,112.4,72.4,112.4,71.6z"/>
	<path d="M45.7,84v-2h9v2h-3.3v8.3h-2.6V84H45.7z"/>
	<path d="M60.1,82c1.3,0,2.3,0.3,3,0.8c0.8,0.5,1.1,1.3,1.1,2.3c0,0.7-0.1,1.3-0.4,1.8c-0.3,0.5-0.8,0.8-1.4,1.1l2.3,4.1v0.1h-2.8
		l-2-3.6h-1.4v3.6h-2.6V81.9h4.2V82z M58.4,86.8H60c0.5,0,0.9-0.1,1.1-0.4c0.2-0.2,0.3-0.6,0.3-1s-0.1-0.8-0.3-1
		c-0.2-0.2-0.7-0.4-1.1-0.4h-1.6V86.8z"/>
	<path d="M68.9,82h2.5l4,10.3h-2.8l-0.7-2h-3.6l-0.7,2h-2.8L68.9,82z M71.3,88.4l-1.2-3.6l-1.2,3.6H71.3z"/>
	<path d="M76.1,92.3V82h3.5c1,0,1.8,0.2,2.6,0.6c0.8,0.4,1.3,1,1.7,1.8s0.7,1.5,0.7,2.5v0.5c0,0.9-0.2,1.8-0.7,2.6
		c-0.4,0.7-1,1.3-1.7,1.8c-0.8,0.4-1.6,0.6-2.5,0.6C79.7,92.3,76.1,92.3,76.1,92.3z M78.7,84v6.5h0.9c0.8,0,1.3-0.2,1.7-0.7
		c0.4-0.5,0.7-1.2,0.7-2.3v-0.4c0-1-0.2-1.8-0.7-2.3c-0.4-0.5-1-0.7-1.7-0.7h-0.9V84z"/>
	<path d="M88.7,92.3h-2.6V82h2.6V92.3z"/>
	<path d="M90.6,92.3V82h2.6l3.8,6.4V82h2.6v10.3H97L93.2,86v6.4H90.6z"/>
	<path d="M101,86.9c0-1,0.2-1.9,0.5-2.7c0.3-0.7,0.9-1.3,1.6-1.8c0.7-0.4,1.5-0.6,2.4-0.6c1.3,0,2.4,0.3,3.2,0.9
		c0.8,0.6,1.2,1.4,1.3,2.6h-2.5c-0.1-0.6-0.3-1-0.5-1.2c-0.2-0.2-0.8-0.4-1.3-0.4c-0.7,0-1.2,0.3-1.5,0.8s-0.5,1.2-0.5,2.3v0.6
		c0,1,0.2,1.8,0.5,2.3c0.3,0.5,1,0.7,1.7,0.7c0.7,0,1.2-0.1,1.5-0.4v-1.5h-1.8v-1.6h4.5V91c-0.4,0.4-1,0.7-1.7,1s-1.6,0.4-2.5,0.4
		c-1.4,0-2.5-0.4-3.4-1.2c-0.9-0.8-1.3-2-1.4-3.4L101,86.9z"/>
</g>
<g>
	<g>
		<path class="st2" d="M6,94c-0.5-0.8-1.1-1.5-1.5-2.2c2.1-1.7,4.2-3.3,6.3-5c0.4,0.8,1,1.3,1.4,2.1C10.1,90.6,8.1,92.4,6,94z"/>
		<path class="st2" d="M7.6,96.3c2.1-1.8,4-3.6,6-5.4c0.5,0.6,1,1.4,1.5,2c-0.5,2.1-1,4.2-1.2,6.5c1.2-1.2,2.3-2.4,3.6-3.6
			c0.5,0.6,1.1,1.2,1.6,1.8c-1.8,2-3.7,4-5.5,6c-0.5-0.6-1.1-1.4-1.8-2c0.3-2.2,0.7-4.4,1.2-6.5c-1.2,1.2-2.5,2.2-3.7,3.5
			C8.6,97.6,8.1,97,7.6,96.3z"/>
		<path class="st2" d="M15,105.1c1.8-2.1,3.6-4,5.3-6.1c0.7,0.8,1.5,1.5,2.2,2.2c0.5,0.6,1.1,1.2,1.4,2c0.3,0.8,0.4,1.5,0.4,2.2
			s-0.3,1.3-0.7,2.1c-0.1,0.2-0.1,0.2-0.3,0.3c-0.4,0.6-1,1-1.6,1.2c-0.7,0.2-1.4,0.2-2.1,0c-0.7-0.3-1.5-0.6-2.1-1.3
			C16.7,106.8,15.9,106,15,105.1z M21.1,101.8c-1.1,1.3-2.2,2.7-3.3,4c0.3,0.1,0.4,0.5,0.7,0.6c0.5,0.5,1.1,0.8,1.6,0.6
			c0.5,0,1.1-0.5,1.5-1c0.1-0.2,0.1-0.2,0.3-0.3c0.5-0.6,0.7-1.2,0.7-1.8c0-0.6-0.3-1-0.8-1.7C21.5,102.1,21.3,102,21.1,101.8z"/>
		<path class="st2" d="M24.6,113.8c-0.7-0.5-1.2-1-1.9-1.5c1.5-2.2,3.2-4.5,4.7-6.8c0.5,0.5,1.2,0.9,1.8,1.5
			C27.6,109.3,26.1,111.6,24.6,113.8z"/>
		<path class="st2" d="M33.3,109.9c0.5,0.5,1.1,0.8,1.8,1.2c-0.4,3-0.7,6.2-0.8,9.3c-0.7-0.5-1.5-0.9-2.2-1.3
			c0.1-0.6,0.1-1.2,0.3-1.7c-1-0.6-1.8-1.2-2.7-1.8c-0.4,0.3-0.8,0.6-1.2,1c-0.7-0.5-1.4-1-2.2-1.5
			C28.5,113.4,30.9,111.6,33.3,109.9z M32.4,115.6c0.1-1,0.3-2.1,0.5-3.1c-0.8,0.6-1.5,1.3-2.3,2C31.2,114.9,31.8,115.2,32.4,115.6z
			"/>
		<path class="st2" d="M39,123c1.1-2.5,2.2-5.1,3.3-7.8c1.1,0.6,2.2,1,3.3,1.5c0.7,0.3,1.1,0.6,1.5,1c0.4,0.5,0.7,0.9,0.8,1.5
			c0.1,0.6,0.1,1,0,1.7c-0.3,0.8-0.8,1.3-1.5,1.5c-0.8,0.1-1.6,0.1-2.7-0.5c-0.4-0.2-1-0.5-1.4-0.6c-0.4,0.9-0.7,1.8-1.1,2.7
			C40.5,123.7,39.7,123.4,39,123z M42.9,120c0.4,0.2,1,0.5,1.4,0.6c0.4,0.1,0.7,0.1,1,0.1c0.3-0.1,0.4-0.3,0.5-0.6
			c0.1-0.3,0.1-0.8,0-1c-0.1-0.3-0.4-0.6-0.7-0.8c-0.4-0.2-1-0.5-1.4-0.6C43.4,118.5,43.1,119.2,42.9,120z"/>
		<path class="st2" d="M53.8,120c1,0.3,1.8,0.8,2.2,1.4c0.4,0.6,0.7,1.3,0.4,2.1c-0.1,0.6-0.4,1-0.7,1.4c-0.3,0.3-0.8,0.5-1.4,0.6
			c0.4,1.4,0.7,2.5,1.1,3.9c0,0,0,0,0,0.2c-0.8-0.2-1.6-0.5-2.5-0.8c-0.3-1.2-0.5-2.3-0.8-3.5c-0.4-0.1-0.8-0.3-1.2-0.5
			c-0.3,0.9-0.5,2-0.8,2.9c-0.7-0.3-1.5-0.5-2.2-0.8c0.8-2.7,1.6-5.4,2.5-8.1C51.6,119.2,52.7,119.7,53.8,120z M51.5,123.3
			c0.4,0.1,1,0.3,1.4,0.5c0.4,0.1,0.7,0.1,1,0c0.3-0.2,0.4-0.5,0.5-0.8c0.1-0.3,0-0.6-0.1-0.9c-0.1-0.3-0.4-0.5-0.8-0.6
			c-0.4-0.2-0.8-0.3-1.4-0.5C51.9,121.8,51.6,122.5,51.5,123.3z"/>
		<path class="st2" d="M59.7,130.3c-0.8-0.1-1.5-0.3-2.3-0.5c0.5-2.8,1.1-5.5,1.6-8.4c0.7,0.2,1.4,0.3,2.1,0.5
			C60.7,124.8,60.1,127.5,59.7,130.3z"/>
		<path class="st2" d="M62.6,122.2c0.8,0.2,1.5,0.3,2.3,0.5c0.3,2.1,0.7,4.4,1.1,6.5c0.8-2,1.6-3.9,2.5-6c0.8,0.2,1.5,0.2,2.3,0.2
			c-1.2,2.7-2.5,5.5-3.8,8.2c-0.8-0.1-1.6-0.1-2.5-0.3C63.7,128.2,63,125.2,62.6,122.2z"/>
		<path class="st2" d="M74.5,123.4c0.7,0,1.4,0,2.1,0c1.1,2.9,2.3,5.7,3.6,8.4c-0.8,0-1.6,0-2.5,0c-0.1-0.6-0.4-1.1-0.5-1.6
			c-1.1,0-2.1,0-3.2,0c-0.1,0.4-0.4,1-0.5,1.5c-0.8,0-1.6-0.2-2.5-0.2C72.2,129.1,73.4,126.3,74.5,123.4z M76.4,128.8
			c-0.3-1-0.7-2-1-3c-0.3,1-0.7,2-1.1,3C75.1,128.8,75.7,128.8,76.4,128.8z"/>
		<path class="st2" d="M80.7,125.1c0-0.6,0-1-0.1-1.7c2.5-0.1,4.9-0.5,7.4-0.8c0,0.5,0.1,1,0.1,1.5c-0.8,0.2-1.8,0.3-2.7,0.3
			c0.3,2.2,0.4,4.6,0.7,6.9c-0.8,0.2-1.5,0.2-2.3,0.3c-0.1-2.2-0.3-4.7-0.5-6.9C82.5,124.9,81.5,124.9,80.7,125.1z"/>
		<path class="st2" d="M95.3,121.2c0.1,0.5,0.3,1,0.3,1.5c-1.4,0.3-2.6,0.6-4,0.9c0.1,0.6,0.1,1.2,0.3,1.8c1.1-0.3,2.3-0.5,3.4-0.8
			c0.1,0.5,0.3,1,0.3,1.5c-1.1,0.3-2.3,0.6-3.4,0.8c0.1,0.6,0.3,1.3,0.3,2c1.4-0.3,2.7-0.6,4.1-0.9c0.1,0.5,0.3,1,0.3,1.5
			c-2.2,0.6-4.4,1-6.6,1.3c-0.4-2.8-0.8-5.5-1.2-8.4C91.4,122.1,93.4,121.6,95.3,121.2z"/>
		<path class="st2" d="M104.4,125.5c1.2-0.5,2.5-0.9,3.8-1.5c0.1,0.5,0.4,1,0.5,1.5c-2.1,0.9-4,1.6-6,2.2c-0.8-2.7-1.5-5.4-2.3-8.1
			c0.7-0.3,1.4-0.5,2.1-0.8C103,121.2,103.7,123.4,104.4,125.5z"/>
		<path class="st2" d="M112.6,123.9c-0.7,0.3-1.5,0.8-2.2,1c-1-2.7-1.9-5.2-3-8c0.7-0.3,1.4-0.6,1.9-0.9
			C110.6,118.6,111.5,121.2,112.6,123.9z"/>
		<path class="st2" d="M114,113.7c1.4,1.5,2.9,2.9,4.4,4.2c-0.3-2.1-0.5-4.2-0.8-6.3c0.8-0.5,1.6-1,2.5-1.6c1.4,2.4,2.7,4.8,4.1,7.2
			c-0.7,0.5-1.4,0.9-2.1,1.3c-0.3-0.6-0.7-1.2-1-1.6c-0.5-1.2-1.1-2.4-1.6-3.6c0.3,2.1,0.5,4.4,0.8,6.6c-0.4,0.3-1,0.6-1.4,0.8
			c-1.6-1.4-3.2-2.9-4.7-4.2c0.7,1.2,1.2,2.4,1.9,3.6c0.3,0.6,0.5,1.2,0.8,1.8c-0.7,0.5-1.4,0.8-2.2,1.2c-1.1-2.5-2.2-5.1-3.3-7.6
			C112.2,114.6,113.2,114.1,114,113.7z"/>
		<path class="st2" d="M128.1,114.3c-0.7,0.5-1.4,1-1.9,1.5c-1.5-2.4-2.9-4.8-4.4-7c0.5-0.5,1.2-0.9,1.8-1.4
			C125.1,109.6,126.6,112,128.1,114.3z"/>
		<path class="st2" d="M125.8,107.5c-0.3-0.5-0.5-0.9-0.8-1.4c2.1-1.6,4.1-3.5,6-5.4c0.3,0.5,0.7,0.8,1,1.2
			c-0.7,0.8-1.4,1.3-2.2,2.1c1.4,1.8,2.7,3.6,4.1,5.4c-0.7,0.6-1.2,1.2-1.9,1.6c-1.4-1.8-2.6-3.6-4-5.4
			C127.3,106.3,126.6,106.9,125.8,107.5z"/>
		<path class="st2" d="M136.7,94.6c0.4,0.3,0.7,0.8,1.1,1c-1,1.2-1.9,2.2-3,3.5c0.4,0.5,0.8,0.9,1.1,1.4c0.8-0.9,1.8-2,2.6-3
			c0.3,0.3,0.7,0.8,1,1c-0.8,1-1.8,2-2.6,3c0.4,0.5,0.8,0.9,1.4,1.5c1.1-1.2,2.2-2.4,3.2-3.6c0.4,0.3,0.7,0.8,1.1,1
			c-1.6,2-3.3,3.8-5.1,5.5c-1.8-2.1-3.6-4.2-5.3-6.3C133.7,98.1,135.2,96.4,136.7,94.6z"/>
		<path class="st2" d="M143.6,99c-1.9-2-3.8-3.8-5.9-5.7c0.7-0.9,1.4-1.6,2.1-2.5c0.5-0.8,1.1-1.3,1.8-1.6c0.7-0.5,1.4-0.6,2.1-0.6
			c0.7,0,1.4,0.3,1.9,0.8c0.1,0.2,0.1,0.2,0.3,0.3c0.5,0.5,1,1,1.2,1.8s0.3,1.5,0,2.4c-0.1,0.9-0.5,1.6-1.1,2.4
			C145.1,97,144.4,97.9,143.6,99z M140.4,92.4c1.2,1.2,2.5,2.2,3.7,3.5c0.1-0.3,0.4-0.5,0.5-0.8c0.4-0.6,0.7-1.2,0.5-1.8
			c0-0.6-0.4-1.2-1-1.6c-0.1-0.2-0.1-0.2-0.3-0.3c-0.5-0.5-1.1-0.8-1.6-0.6c-0.5,0-1,0.5-1.5,1C140.7,91.9,140.6,92.2,140.4,92.4z"
			/>
	</g>
</g>
</svg>
